<svg width="251" height="250" viewBox="0 0 251 250" fill="none" xmlns="http://www.w3.org/2000/svg">
<path fill-rule="evenodd" clip-rule="evenodd" d="M127.377 22C122.683 22 118.877 25.8056 118.877 30.5V40.5C118.877 40.8151 118.894 41.1262 118.927 41.4323C87.3677 45.1202 62.877 71.9501 62.877 104.5V169H53.877C49.4587 169 45.877 172.582 45.877 177C45.877 181.418 49.4587 185 53.8769 185H84.2134C86.8548 206.428 104.725 223 126.377 223C148.029 223 165.899 206.428 168.54 185H198.877C203.295 185 206.877 181.418 206.877 177C206.877 172.582 203.295 169 198.877 169H189.877V104.5C189.877 72.6297 166.398 46.2431 135.794 41.6934C135.849 41.3035 135.877 40.9051 135.877 40.5V30.5C135.877 25.8056 132.071 22 127.377 22ZM126.377 207C113.556 207 102.862 197.552 100.407 185H152.347C149.892 197.552 139.197 207 126.377 207ZM173.877 169V153H78.877V169H173.877ZM173.877 137V104.5C173.877 78.2665 152.61 57 126.377 57C100.143 57 78.877 78.2665 78.877 104.5V137H173.877Z" fill="white"/>
</svg>
