<svg width="251" height="250" viewBox="0 0 251 250" fill="none" xmlns="http://www.w3.org/2000/svg">
<g clip-path="url(#clip0)">
<path d="M120.556 43.0409C120.09 43.1066 119.633 43.2293 119.196 43.4062L4.00367 88.1531C2.92271 88.5849 1.99543 89.3337 1.34206 90.3027C0.688685 91.2716 0.339355 94.475 0.339355 95.6464C0.339355 96.8177 0.688685 100.021 1.34206 100.99C1.99543 101.959 2.92271 102.708 4.00367 103.14L42.1283 118.923V164.143C42.1268 165.292 42.4614 166.416 43.0903 167.374C43.7192 168.332 44.6145 169.083 45.6643 169.531L119.015 200.401C119.732 200.707 120.503 200.865 121.281 200.865C122.06 200.865 122.831 200.707 123.548 200.401L196.898 169.531C197.948 169.083 198.844 168.332 199.472 167.374C200.101 166.416 200.436 165.292 200.434 164.143V120.099L228.813 106.135C229.528 105.859 230.181 105.444 230.737 104.914C231.292 104.384 231.859 103.587 232.171 102.883C232.483 102.179 232.465 101.177 232.485 100.406C232.506 99.6358 232.322 98.5398 232.048 97.8201C231.774 97.1004 230.525 95.2907 229.998 94.7314C229.472 94.1721 227.463 92.332 226.764 92.0182C226.065 91.7045 225.311 91.5325 224.547 91.512C223.782 91.4916 223.02 91.6231 222.306 91.8991L121.281 132.853L22.3946 95.6464L121.281 59.4328L222.88 99.5735V166.609C214.402 169.137 209.912 177.336 209.912 186.542C209.912 197.753 219.145 207 230.403 207C241.661 207 250.985 197.753 250.985 186.542C250.985 177.331 247.274 169.133 238.79 166.609V95.6464C238.795 94.461 238.437 93.3369 237.774 92.3583C237.11 91.3796 236.166 90.6274 235.068 90.2013L123.367 43.4062C122.474 43.0523 121.509 42.9268 120.556 43.0409ZM55.8863 123.399L119.196 148.879C120.538 149.4 122.025 149.4 123.367 148.879L186.676 123.49V158.048L121.281 186.542L55.8863 157.956V123.399ZM230.403 177.683C235.353 177.683 239.288 181.21 239.288 186.542C239.288 191.874 235.353 195.617 230.403 195.617C225.453 195.617 221.518 191.472 221.518 186.542C221.518 181.613 225.453 177.683 230.403 177.683Z" fill="white"/>
</g>
<defs>
<clipPath id="clip0">
<rect width="250" height="250" fill="white" transform="translate(0.876953)"/>
</clipPath>
</defs>
</svg>
