<svg width="251" height="250" viewBox="0 0 251 250" fill="none" xmlns="http://www.w3.org/2000/svg">
<g clip-path="url(#clip0)">
<path fill-rule="evenodd" clip-rule="evenodd" d="M60.877 60.0913C60.877 56.2253 64.011 53.0913 67.877 53.0913H154.877C158.743 53.0913 161.877 56.2253 161.877 60.0913V88.4567L247.286 136.089C249.503 137.325 250.877 139.664 250.877 142.202V243.091C250.877 246.957 247.743 250.091 243.877 250.091L161.877 250.091H75.877H60.877H7.87695C4.01096 250.091 0.876953 246.957 0.876953 243.091V142.091C0.876953 138.225 4.01096 135.091 7.87695 135.091H60.877V60.0913ZM146.877 235.091H75.877V135.091V68.0913H146.877V92.0101V104.091H97.877C94.011 104.091 90.877 107.225 90.877 111.091V112.091C90.877 115.957 94.011 119.091 97.877 119.091H146.877V144.091H97.877C94.011 144.091 90.877 147.225 90.877 151.091V152.091C90.877 155.957 94.011 159.091 97.877 159.091H146.877V184.091H97.877C94.011 184.091 90.877 187.225 90.877 191.091V192.091C90.877 195.957 94.011 199.091 97.877 199.091H146.877V235.091ZM60.877 150.091V235.091H45.877V205C45.877 201.134 42.7429 198 38.877 198H37.877C34.011 198 30.877 201.134 30.877 205V235.091H15.877V150.091H60.877ZM191.792 235.091H206.962C206.906 234.736 206.877 234.371 206.877 234V204H191.877V234C191.877 234.371 191.848 234.736 191.792 235.091ZM176.877 197V196C176.877 192.134 180.011 189 183.877 189H184.877H213.877H214.877C218.743 189 221.877 192.134 221.877 196V197V234C221.877 234.371 221.848 234.736 221.792 235.091H235.877V147.303L161.877 106.091V235.091H176.962C176.906 234.736 176.877 234.371 176.877 234V197Z" fill="white"/>
</g>
<defs>
<clipPath id="clip0">
<rect width="250" height="250" fill="white" transform="translate(0.876953)"/>
</clipPath>
</defs>
</svg>
