<svg width="251" height="250" viewBox="0 0 251 250" fill="none" xmlns="http://www.w3.org/2000/svg">
<g clip-path="url(#clip0)">
<path fill-rule="evenodd" clip-rule="evenodd" d="M15.877 0C7.59268 0 0.876953 6.71572 0.876953 15V193C0.876953 201.284 7.59268 208 15.877 208H74.377C82.6612 208 89.377 201.284 89.377 193V192H21.877C19.1155 192 16.877 189.761 16.877 187V21C16.877 18.2386 19.1155 16 21.877 16H156.877C159.638 16 161.877 18.2386 161.877 21V149H162.877C171.161 149 177.877 142.284 177.877 134V15C177.877 6.71573 171.161 0 162.877 0H15.877Z" fill="white"/>
<rect x="59.877" y="42" width="86" height="16" rx="8" fill="white"/>
<rect x="59.877" y="74" width="86" height="16" rx="8" fill="white"/>
<rect x="59.877" y="106" width="60" height="16" rx="8" fill="white"/>
<rect x="32.877" y="106" width="16" height="16" rx="8" fill="white"/>
<rect x="32.877" y="74" width="16" height="16" rx="8" fill="white"/>
<rect x="32.877" y="42" width="16" height="16" rx="8" fill="white"/>
<path fill-rule="evenodd" clip-rule="evenodd" d="M89.877 138C81.5927 138 74.877 144.716 74.877 153V235C74.877 243.284 81.5927 250 89.8769 250H235.877C244.161 250 250.877 243.284 250.877 235V153C250.877 144.716 244.161 138 235.877 138H89.877ZM95.877 154C93.1155 154 90.877 156.239 90.877 159V229C90.877 231.761 93.1155 234 95.877 234H229.877C232.638 234 234.877 231.761 234.877 229V159C234.877 156.239 232.638 154 229.877 154H95.877Z" fill="white"/>
<rect x="84.877" y="177" width="155" height="16" fill="white"/>
</g>
<defs>
<clipPath id="clip0">
<rect width="250" height="250" fill="white" transform="translate(0.876953)"/>
</clipPath>
</defs>
</svg>
