<svg width="251" height="250" viewBox="0 0 251 250" fill="none" xmlns="http://www.w3.org/2000/svg">
<g clip-path="url(#clip0)">
<path d="M81.9298 92.6587C84.5614 80.9676 95.0875 76.291 104.298 77.8498C113.245 79.4086 121.666 86.943 120.351 98.8939C119.561 108.247 117.982 114.482 116.403 120.457C115.351 123.575 114.561 127.212 113.772 131.369H145.351C150.877 131.369 155.877 133.707 159.561 138.644C163.245 142.8 164.561 148.256 163.772 153.712C162.982 157.089 161.403 160.207 159.035 162.805C161.667 166.702 162.719 171.379 161.93 176.055C161.14 179.432 159.561 182.55 157.193 185.148C159.825 189.045 160.877 193.722 160.088 198.398C159.298 201.775 157.719 204.893 155.351 207.491C157.982 211.388 159.035 216.064 158.245 220.741C156.666 229.574 148.509 236.069 139.035 236.069H98.2454C74.5612 236.069 63.2454 230.354 55.6138 226.457C53.2454 225.158 51.4032 224.378 49.8243 223.859H14.0349C6.6665 223.859 0.876953 218.143 0.876953 210.868V151.374C0.876953 144.099 6.6665 138.384 14.0349 138.384H48.7719C48.7719 138.124 49.035 138.124 49.035 138.124C55.3508 133.707 76.4035 116.82 81.9298 92.6587ZM102.193 91.8793C101.666 91.8793 97.7192 91.3595 96.6666 95.5163C90.0876 124.095 66.6667 143.32 58.5088 149.296V212.168C59.8246 212.947 61.1403 213.466 62.4561 214.246C69.2982 217.883 78.2454 222.3 98.2454 222.3H139.035C141.404 222.3 143.509 220.741 143.772 218.922C144.035 217.104 143.509 216.064 142.982 215.545C142.193 214.506 141.14 213.986 139.824 213.986H135.614C131.667 213.986 128.246 210.609 128.246 206.712C128.246 202.815 131.667 199.437 135.614 199.437H140.877C143.245 199.437 145.351 197.878 145.614 196.06C145.877 194.241 145.351 193.202 144.824 192.682C144.035 191.643 142.982 191.123 141.667 191.123H137.456C133.509 191.123 130.087 187.746 130.087 183.849C130.087 179.952 133.509 176.574 137.456 176.574H142.719C145.088 176.574 147.193 175.016 147.456 173.197C147.719 171.379 147.193 170.339 146.667 169.82C145.877 168.781 144.561 168.261 143.509 168.261H139.298C135.351 168.261 131.93 164.884 131.93 160.986C131.93 157.089 135.351 153.712 139.298 153.712H144.561C146.93 153.712 149.035 152.413 149.035 150.594C149.298 148.776 148.772 147.736 148.245 147.217C147.456 146.178 146.404 145.658 145.088 145.658H109.035C105.877 145.658 102.982 144.359 100.877 142.021C98.7717 139.683 97.9822 136.565 98.5085 133.447C99.8243 126.433 100.877 121.497 102.193 116.56C103.772 110.845 105.087 105.649 105.877 97.0751C106.403 93.4379 104.035 92.1391 102.193 91.8793ZM43.5085 152.673H15.6138V209.05H43.5085V152.673ZM29.5613 187.746C33.7761 187.746 37.1928 191.119 37.1928 195.28C37.1928 199.441 33.7761 202.814 29.5613 202.814C25.3465 202.814 21.9295 199.441 21.9295 195.28C21.9295 191.119 25.3465 187.746 29.5613 187.746ZM193.772 14.4583C225.088 14.4583 250.877 39.6589 250.877 70.8352C250.877 102.011 225.088 127.212 193.772 127.212C162.456 127.212 136.667 101.752 136.667 70.8352C136.667 39.9187 162.193 14.4583 193.772 14.4583ZM193.772 29.7863C170.614 29.7863 152.193 48.2324 152.193 70.8352C152.193 93.438 170.614 111.884 193.772 111.884C216.667 111.884 235.351 93.438 235.351 70.8352C235.351 48.2324 216.93 29.7863 193.772 29.7863ZM193.509 42.7765C197.982 42.7765 201.403 46.4136 201.403 50.5705V63.0412H214.035C218.245 63.0412 221.93 66.6783 222.193 70.8352C222.193 75.2518 218.509 78.6292 214.298 78.6292H201.667V91.0999C201.667 95.5165 198.246 98.8939 193.772 98.8939C189.298 98.8939 185.877 95.2567 185.877 91.0999V78.6292H173.246C168.772 78.6292 165.351 74.992 165.351 70.8352C165.351 66.4185 169.035 63.0412 173.246 63.0412H185.614V50.5705C185.614 46.1538 189.035 42.7765 193.509 42.7765Z" fill="white"/>
</g>
<defs>
<clipPath id="clip0">
<rect width="250" height="250" fill="white" transform="translate(0.876953)"/>
</clipPath>
</defs>
</svg>
