<svg width="60" height="49" viewBox="0 0 60 49" fill="none" xmlns="http://www.w3.org/2000/svg">
<g clip-path="url(#clip0)">
<path fill-rule="evenodd" clip-rule="evenodd" d="M19.0567 0C17.3999 0 16.0567 1.34315 16.0567 3V17.0645L8.65847 22.5534C8.27053 22.8414 7.99978 23.2601 7.89651 23.7322L4.58938 38.8505C4.56765 38.9496 4.53103 39.0448 4.48074 39.1329L0.266384 46.5077C-0.495335 47.841 0.467311 49.5 2.00296 49.5H18.6707C19.5044 49.5 20.2505 48.9829 20.5432 48.2022L21.5567 45.5L28.9495 41H41.0567C42.7134 41 44.0567 39.6569 44.0567 38V34H56.5567C58.2134 34 59.5567 32.6569 59.5567 31V14C59.5567 12.3431 58.2134 11 56.5567 11H44.0567V3C44.0567 1.34315 42.7134 0 41.0567 0H19.0567ZM44.0567 13.5V31.5H55.0567C56.1612 31.5 57.0567 30.6046 57.0567 29.5V15.5C57.0567 14.3954 56.1612 13.5 55.0567 13.5H44.0567ZM41.5567 11V3.5C41.5567 2.94772 41.1089 2.5 40.5567 2.5H19.5567C19.0044 2.5 18.5567 2.94772 18.5567 3.5V15.2097L20.0877 14.0738C21.7796 12.8185 24.0935 13.012 25.5567 14.4226V14C25.5567 12.3431 26.8999 11 28.5567 11H41.5567ZM41.5567 31.5V13.5H30.0567C28.9522 13.5 28.0567 14.3954 28.0567 15.5V29.5C28.0567 30.6046 28.9522 31.5 30.0567 31.5H41.5567ZM41.5567 34V37.5C41.5567 38.0523 41.1089 38.5 40.5567 38.5H33.0567H24.5567H19.5567C19.0044 38.5 18.5567 38.0523 18.5567 37.5V25.5L25.0481 20.956C25.231 20.828 25.4007 20.6883 25.5567 20.5385V31C25.5567 32.6569 26.8999 34 28.5567 34H41.5567ZM24.0567 5.25C24.0567 4.55964 24.6162 4 25.3067 4H34.8067C35.4971 4 36.0567 4.55964 36.0567 5.25C36.0567 5.94036 35.4971 6.5 34.8067 6.5H25.3067C24.6162 6.5 24.0567 5.94036 24.0567 5.25ZM3.05667 47L7.05667 40L10.4763 24.8554C10.5281 24.6259 10.6595 24.4219 10.8467 24.2795L21.5501 16.145C22.3665 15.5244 23.5374 15.7211 24.1062 16.5745C24.6367 17.3703 24.4431 18.4431 23.6678 19.0031L16.0567 24.5V38C16.0567 39.6569 17.3997 41 19.0567 41H24.0567L19.0567 44L18.0567 47H3.05667ZM30.8067 17C30.1162 17 29.5567 17.5596 29.5567 18.25C29.5567 18.9404 30.1162 19.5 30.8067 19.5H37.8067C38.4971 19.5 39.0567 18.9404 39.0567 18.25C39.0567 17.5596 38.4971 17 37.8067 17H30.8067ZM29.5567 22.25C29.5567 21.5596 30.1162 21 30.8067 21H37.8067C38.4971 21 39.0567 21.5596 39.0567 22.25C39.0567 22.9404 38.4971 23.5 37.8067 23.5H30.8067C30.1162 23.5 29.5567 22.9404 29.5567 22.25ZM46.8067 17C46.1162 17 45.5567 17.5596 45.5567 18.25C45.5567 18.9404 46.1162 19.5 46.8067 19.5H53.8067C54.4971 19.5 55.0567 18.9404 55.0567 18.25C55.0567 17.5596 54.4971 17 53.8067 17H46.8067ZM45.5567 22.25C45.5567 21.5596 46.1162 21 46.8067 21H53.8067C54.4971 21 55.0567 21.5596 55.0567 22.25C55.0567 22.9404 54.4971 23.5 53.8067 23.5H46.8067C46.1162 23.5 45.5567 22.9404 45.5567 22.25ZM46.8067 25C46.1162 25 45.5567 25.5596 45.5567 26.25C45.5567 26.9404 46.1162 27.5 46.8067 27.5H53.8067C54.4971 27.5 55.0567 26.9404 55.0567 26.25C55.0567 25.5596 54.4971 25 53.8067 25H46.8067ZM29.5567 26.25C29.5567 25.5596 30.1162 25 30.8067 25H37.8067C38.4971 25 39.0567 25.5596 39.0567 26.25C39.0567 26.9404 38.4971 27.5 37.8067 27.5H30.8067C30.1162 27.5 29.5567 26.9404 29.5567 26.25Z" fill="#0062A1"/>
</g>
<defs>
<clipPath id="clip0">
<rect width="60" height="49" fill="white"/>
</clipPath>
</defs>
</svg>
