<svg width="68" height="45" viewBox="0 0 68 45" fill="none" xmlns="http://www.w3.org/2000/svg">
<path fill-rule="evenodd" clip-rule="evenodd" d="M3 0C1.34326 0 0 1.34315 0 3V30C0 31.6569 1.34326 33 3 33H15V36.083C12.1624 36.559 10 39.027 10 42V43C10 44.1046 10.8955 45 12 45H40C41.1045 45 42 44.1046 42 43V42C42 39.2042 40.0879 36.8551 37.5 36.189V33H43.4644C45.6323 37.1598 49.9846 40 55 40C62.1797 40 68 34.1797 68 27C68 19.8203 62.1797 14 55 14C53.9675 14 52.9631 14.1204 52 14.3479V7.5V5V3C52 1.34315 50.6567 0 49 0H3ZM49.5 5V3.5C49.5 2.94772 49.0522 2.5 48.5 2.5H3.5C2.94775 2.5 2.5 2.94771 2.5 3.5V5H49.5ZM2.5 7.5V29.5C2.5 30.0523 2.94775 30.5 3.5 30.5H42.4766C42.166 29.3864 42 28.2126 42 27C42 21.7861 45.0696 17.289 49.5 15.2174V7.5H2.5ZM35 33H17.5V36H35V33ZM11.25 13C10.5596 13 10 13.5596 10 14.25C10 14.9404 10.5596 15.5 11.25 15.5H25.75C26.4404 15.5 27 14.9404 27 14.25C27 13.5596 26.4404 13 25.75 13H11.25ZM12.5 42C12.5 40.067 14.0669 38.5 16 38.5H36C37.9331 38.5 39.5 40.067 39.5 42C39.5 42.2761 39.2761 42.5 39 42.5H13C12.7239 42.5 12.5 42.2761 12.5 42ZM11.25 18C10.5596 18 10 18.5596 10 19.25C10 19.9404 10.5596 20.5 11.25 20.5H25.75C26.4404 20.5 27 19.9404 27 19.25C27 18.5596 26.4404 18 25.75 18H11.25ZM10 24.25C10 23.5596 10.5596 23 11.25 23H20.75C21.4404 23 22 23.5596 22 24.25C22 24.9404 21.4404 25.5 20.75 25.5H11.25C10.5596 25.5 10 24.9404 10 24.25ZM6.25 23C5.55957 23 5 23.5596 5 24.25C5 24.9404 5.55957 25.5 6.25 25.5C6.94043 25.5 7.5 24.9404 7.5 24.25C7.5 23.5596 6.94043 23 6.25 23ZM5 19.25C5 18.5596 5.55957 18 6.25 18C6.94043 18 7.5 18.5596 7.5 19.25C7.5 19.9404 6.94043 20.5 6.25 20.5C5.55957 20.5 5 19.9404 5 19.25ZM6.25 13C5.55957 13 5 13.5596 5 14.25C5 14.9404 5.55957 15.5 6.25 15.5C6.94043 15.5 7.5 14.9404 7.5 14.25C7.5 13.5596 6.94043 13 6.25 13ZM65.5 27C65.5 32.799 60.7991 37.5 55 37.5C49.2009 37.5 44.5 32.799 44.5 27C44.5 21.201 49.2009 16.5 55 16.5C60.7991 16.5 65.5 21.201 65.5 27ZM61.749 24.0904C62.2009 23.5685 62.1443 22.7791 61.6223 22.3272C61.1003 21.8753 60.311 21.9321 59.8591 22.454L53.7246 29.5393L50.199 25.467C49.7471 24.9451 48.9578 24.8883 48.4358 25.3402C47.9138 25.7921 47.8569 26.5815 48.3088 27.1034L52.645 32.1115C52.9238 32.4335 53.3311 32.5785 53.7249 32.5361C54.1184 32.5784 54.5256 32.4335 54.8044 32.1115L61.749 24.0904Z" fill="#0062A1"/>
</svg>
