<svg width="251" height="250" viewBox="0 0 251 250" fill="none" xmlns="http://www.w3.org/2000/svg">
<path fill-rule="evenodd" clip-rule="evenodd" d="M79.3768 0C53.1433 0 31.8768 21.2665 31.8768 47.5C31.8768 73.7335 53.1433 95 79.3768 95H106.622L101.121 115.531C100.12 119.265 102.336 123.103 106.07 124.104L107.036 124.363C110.771 125.363 114.609 123.147 115.61 119.413L122.151 95H132.603L139.144 119.413C140.145 123.147 143.983 125.363 147.717 124.363L148.683 124.104C152.417 123.103 154.634 119.265 153.633 115.531L148.132 95H179.377C205.61 95 226.877 73.7335 226.877 47.5C226.877 21.2665 205.61 0 179.377 0H79.3768ZM79.3768 15C61.4276 15 46.8768 29.5507 46.8768 47.5C46.8768 65.4493 61.4276 80 79.3768 80H179.377C197.326 80 211.877 65.4493 211.877 47.5C211.877 29.5507 197.326 15 179.377 15H79.3768ZM93.8768 47.5C93.8768 43.3579 97.2347 40 101.377 40C105.519 40 108.877 43.3579 108.877 47.5C108.877 51.6421 105.519 55 101.377 55C97.2347 55 93.8768 51.6421 93.8768 47.5ZM127.377 40C123.235 40 119.877 43.3579 119.877 47.5C119.877 51.6421 123.235 55 127.377 55C131.519 55 134.877 51.6421 134.877 47.5C134.877 43.3579 131.519 40 127.377 40ZM145.877 47.5C145.877 43.3579 149.235 40 153.377 40C157.519 40 160.877 43.3579 160.877 47.5C160.877 51.6421 157.519 55 153.377 55C149.235 55 145.877 51.6421 145.877 47.5ZM69.5354 121C63.6655 121 57.9274 122.741 53.0468 126.002C48.1662 129.263 44.3622 133.898 42.1159 139.321C39.8696 144.744 39.2818 150.712 40.427 156.469C41.5721 162.226 44.3988 167.514 48.5494 171.665C52.7 175.815 57.9883 178.642 63.7454 179.787C69.5025 180.932 75.4699 180.345 80.8929 178.098C86.316 175.852 90.9512 172.048 94.2123 167.167C97.4734 162.287 99.2141 156.549 99.2141 150.679C99.2067 142.81 96.0775 135.265 90.5133 129.701C84.949 124.137 77.4044 121.007 69.5354 121ZM69.5354 166.528C66.4008 166.528 63.3365 165.598 60.7302 163.857C58.1239 162.115 56.0925 159.64 54.8929 156.744C53.6933 153.848 53.3795 150.661 53.991 147.587C54.6025 144.512 56.112 141.688 58.3285 139.472C60.545 137.255 63.369 135.746 66.4434 135.134C69.5178 134.523 72.7045 134.837 75.6005 136.036C78.4965 137.236 80.9718 139.267 82.7133 141.874C84.4548 144.48 85.3843 147.544 85.3843 150.679C85.377 154.88 83.7048 158.907 80.7342 161.877C77.7635 164.848 73.7365 166.52 69.5354 166.528ZM73.3768 190.25H63.7152C38.5184 190.25 18.0923 210.676 18.0923 235.873C18.0923 239.634 21.1409 242.683 24.9017 242.683H25.512C29.6097 242.683 32.9316 239.361 32.9316 235.263V234.684C32.9316 218.339 46.1815 205.09 62.5261 205.09H74.566C90.9106 205.09 104.16 218.339 104.16 234.684V235.263C104.16 239.361 107.482 242.683 111.58 242.683H112.19C115.951 242.683 119 239.634 119 235.873C119 210.676 98.5737 190.25 73.3768 190.25ZM168.708 126.525C173.589 123.264 179.327 121.523 185.197 121.523C193.066 121.531 200.611 124.66 206.175 130.224C211.739 135.788 214.868 143.333 214.876 151.202C214.876 157.072 213.135 162.81 209.874 167.691C206.613 172.571 201.978 176.375 196.554 178.621C191.131 180.868 185.164 181.456 179.407 180.31C173.65 179.165 168.362 176.339 164.211 172.188C160.06 168.037 157.234 162.749 156.089 156.992C154.943 151.235 155.531 145.267 157.777 139.844C160.024 134.421 163.828 129.786 168.708 126.525ZM176.392 164.38C178.998 166.121 182.062 167.051 185.197 167.051C189.398 167.044 193.425 165.371 196.396 162.401C199.366 159.43 201.039 155.403 201.046 151.202C201.046 148.067 200.116 145.003 198.375 142.397C196.633 139.79 194.158 137.759 191.262 136.559C188.366 135.36 185.179 135.046 182.105 135.658C179.031 136.269 176.207 137.779 173.99 139.995C171.774 142.212 170.264 145.036 169.653 148.11C169.041 151.184 169.355 154.371 170.554 157.267C171.754 160.163 173.785 162.638 176.392 164.38ZM189.038 190.773H179.377C154.18 190.773 133.754 211.2 133.754 236.396C133.754 240.157 136.803 243.206 140.563 243.206H141.174C145.271 243.206 148.593 239.884 148.593 235.786V235.207C148.593 218.863 161.843 205.613 178.188 205.613H190.228C206.572 205.613 219.822 218.863 219.822 235.207V235.786C219.822 239.884 223.144 243.206 227.242 243.206H227.852C231.613 243.206 234.661 240.157 234.661 236.396C234.661 211.2 214.235 190.773 189.038 190.773Z" fill="white"/>
</svg>
