<svg width="251" height="250" viewBox="0 0 251 250" fill="none" xmlns="http://www.w3.org/2000/svg">
<g clip-path="url(#clip0)">
<path fill-rule="evenodd" clip-rule="evenodd" d="M60.877 59.5106C60.5557 40.5576 50.1215 28.2089 39.254 21.5365C25.3213 29.1847 15.877 43.9947 15.877 61.0106V116.011H60.877V59.5106ZM0.876953 61.0106C0.876953 39.3845 12.3184 20.4307 29.4782 9.87219C41.5687 2.00244 54.9139 0.871994 60.8765 1.01059L60.877 1.01059H68.877L68.8891 1.0106L210.877 1.0106C232.968 1.0106 250.877 18.9192 250.877 41.0106V189.011C250.877 192.877 247.743 196.011 243.877 196.011H195.877V243.856C195.877 247.588 191.936 250.005 188.609 248.312L158.877 233.181L128.097 248.433C124.773 250.08 120.877 247.662 120.877 243.953V196.011H67.877C64.011 196.011 60.877 192.893 60.8837 189.027C60.8982 180.71 60.9338 170.496 60.9726 159.386V159.385V159.385L60.9726 159.38C61.0042 150.338 61.0378 140.702 61.0638 131.011H7.87695C4.01096 131.011 0.876953 127.877 0.876953 124.011V61.0106ZM120.877 181.511V162.641C112.8 153.761 107.877 141.961 107.877 129.011C107.877 101.396 130.263 79.0106 157.877 79.0106C185.491 79.0106 207.877 101.396 207.877 129.011C207.877 141.417 203.358 152.768 195.877 161.508V181.511H236.377V46.4173C236.377 29.8852 223.002 16.4689 206.47 16.4174L75.877 16.0106C70.2103 16.0106 58.277 16.1106 55.877 16.5106C62.5436 22.0106 75.377 39.5106 75.877 57.5106C76.2555 71.1387 76.1074 110.563 75.9822 143.903V143.904V143.905V143.906C75.9274 158.497 75.877 171.922 75.877 181.511H120.877ZM157.877 179.011C166.17 179.011 173.992 176.992 180.877 173.418V230.7L158.877 219.913L135.877 230.7V173.923C142.516 177.181 149.983 179.011 157.877 179.011ZM157.877 164.011C177.207 164.011 192.877 148.341 192.877 129.011C192.877 109.681 177.207 94.0106 157.877 94.0106C138.547 94.0106 122.877 109.681 122.877 129.011C122.877 148.341 138.547 164.011 157.877 164.011Z" fill="white"/>
</g>
<defs>
<clipPath id="clip0">
<rect width="250" height="250" fill="white" transform="translate(0.876953)"/>
</clipPath>
</defs>
</svg>
