<svg width="251" height="250" viewBox="0 0 251 250" fill="none" xmlns="http://www.w3.org/2000/svg">
<g clip-path="url(#clip0)">
<path fill-rule="evenodd" clip-rule="evenodd" d="M54.877 18C50.4587 18 46.877 21.5817 46.877 26V32H15.877C7.59268 32 0.876953 38.7157 0.876953 47V191C0.876953 199.284 7.59268 206 15.877 206H141.668C152.065 222.805 170.664 234 191.877 234C224.462 234 250.877 207.585 250.877 175C250.877 142.415 224.462 116 191.877 116V47C191.877 38.7157 185.161 32 176.877 32H145.877V26C145.877 21.5817 142.295 18 137.877 18C133.459 18 129.877 21.5817 129.877 26V32H62.877V26C62.877 21.5817 59.2952 18 54.877 18ZM175.877 118.195V104H16.877V185C16.877 187.761 19.1155 190 21.8769 190H134.801C133.545 185.21 132.877 180.183 132.877 175C132.877 147.96 151.066 125.169 175.877 118.195ZM129.877 57V48H62.877V57C62.877 61.4183 59.2952 65 54.877 65C50.4587 65 46.877 61.4183 46.877 57V48H21.877C19.1155 48 16.877 50.2386 16.877 53V88H175.877V53C175.877 50.2386 173.638 48 170.877 48H145.877V57C145.877 61.4183 142.295 65 137.877 65C133.459 65 129.877 61.4183 129.877 57ZM235.877 175C235.877 199.301 216.177 219 191.877 219C167.576 219 147.877 199.301 147.877 175C147.877 150.699 167.576 131 191.877 131C216.177 131 235.877 150.699 235.877 175Z" fill="white"/>
<path fill-rule="evenodd" clip-rule="evenodd" d="M217.344 155.691C220.475 158.403 220.816 163.139 218.105 166.271L193.126 195.121C191.573 196.914 189.356 197.792 187.157 197.706C184.957 197.793 182.739 196.915 181.186 195.121L166.786 178.489C164.075 175.357 164.415 170.62 167.547 167.909C170.679 165.198 175.415 165.539 178.126 168.67L187.156 179.1L206.764 156.452C209.476 153.321 214.212 152.98 217.344 155.691Z" fill="white"/>
</g>
<defs>
<clipPath id="clip0">
<rect width="250" height="250" fill="white" transform="translate(0.876953)"/>
</clipPath>
</defs>
</svg>
