<svg width="251" height="250" viewBox="0 0 251 250" fill="none" xmlns="http://www.w3.org/2000/svg">
<g clip-path="url(#clip0)">
<path fill-rule="evenodd" clip-rule="evenodd" d="M250.877 125C250.877 194.036 194.913 250 125.877 250C56.8414 250 0.876953 194.036 0.876953 125C0.876953 55.9644 56.8414 0 125.877 0C194.913 0 250.877 55.9644 250.877 125ZM99.9607 228.84C91.9619 218.608 82.7874 203.98 75.5649 186H37.9563C52.5395 206.98 74.4392 222.491 99.9607 228.84ZM28.7714 170H69.987C66.6084 158.613 64.1684 146.214 63.2627 133H19.1715C20.1424 146.135 23.4845 158.611 28.7714 170ZM19.1715 117H62.954C63.3714 103.811 65.4604 91.4128 68.6036 80H28.7714C23.4845 91.3894 20.1424 103.865 19.1715 117ZM37.9563 64H73.8934C80.6186 46.6202 89.4436 32.2542 97.4899 21.8063C73.0268 28.5205 52.0667 43.7006 37.9563 64ZM116.181 18.4334C107.463 29.0632 97.3803 44.667 89.8969 64H117.877V18.2946C117.31 18.3364 116.745 18.3827 116.181 18.4334ZM135.198 231.6C134.758 231.638 134.318 231.673 133.877 231.705V186H160.99C153.476 205.353 143.63 220.969 135.198 231.6ZM153.718 228.342C178.415 221.705 199.582 206.45 213.798 186H176.994C170.216 203.462 161.54 217.882 153.718 228.342ZM232.582 133C231.612 146.135 228.269 158.611 222.983 170H182.362C185.604 158.587 187.887 146.189 188.631 133H232.582ZM232.582 117H188.738C188.148 103.787 185.892 91.3869 182.601 80H222.983C228.269 91.3894 231.612 103.865 232.582 117ZM152.292 21.2854C177.6 27.7116 199.31 43.1573 213.798 64H177.087C169.898 46.0929 160.54 31.5113 152.292 21.2854ZM133.877 64V18.3899C142.665 28.6695 153.183 44.3281 161.083 64H133.877ZM133.877 80H166.599C169.891 91.3869 172.148 103.787 172.738 117H133.877V80ZM133.877 133H172.631C171.887 146.189 169.603 158.587 166.36 170H133.877V133ZM84.6054 80C81.4612 91.4128 79.3716 103.811 78.954 117H117.877V80H84.6054ZM79.2629 133C80.1688 146.214 82.6096 158.613 85.9892 170H117.877V133H79.2629ZM91.5689 186C99.3743 205.425 109.459 220.937 117.877 231.221V186H91.5689Z" fill="white"/>
</g>
<defs>
<clipPath id="clip0">
<rect width="250" height="250" fill="white" transform="translate(0.876953)"/>
</clipPath>
</defs>
</svg>
