<svg width="251" height="250" viewBox="0 0 251 250" fill="none" xmlns="http://www.w3.org/2000/svg">
<path d="M139.051 0C143.375 0 147.206 3.93645 147.304 8.27077V39.9701C157.719 46.9592 164.695 58.7721 164.695 72.261C164.695 75.2151 164.304 78.0671 163.614 80.9226L235.639 213.723C236.617 215.399 236.913 217.565 236.522 219.434L231.118 243.553C230.135 248.081 224.928 251.035 220.604 249.655L198.299 242.567C196.334 241.88 194.566 240.5 193.584 238.631L161.55 179.661C150.347 183.795 138.361 186.161 125.784 186.161C113.207 186.161 101.12 183.893 89.9196 179.763L57.9843 238.634C57.002 240.504 55.2345 241.884 53.2698 242.571L30.9644 249.658C26.6406 251.038 21.4331 248.084 20.3522 243.556L15.046 219.438C14.6517 217.568 14.9475 215.403 15.9298 213.727L87.9549 81.0212C87.3669 78.1656 86.8739 75.2151 86.8739 72.261C86.8739 58.7721 93.849 46.9592 104.268 39.9701V8.27077C104.268 3.93997 108.193 0 112.521 0H139.051ZM130.7 16.538H120.872V33.6676C122.443 33.4704 124.115 33.3753 125.788 33.3753C127.46 33.3753 129.126 33.4739 130.703 33.6676V16.538H130.7ZM125.784 50.0119C113.401 50.0119 103.479 59.758 103.479 72.261C103.479 84.6654 113.401 94.51 125.784 94.51C138.164 94.51 148.09 84.6654 148.09 72.261C148.09 59.758 138.164 50.0119 125.784 50.0119ZM154.378 98.5451C150.741 102.481 146.319 105.731 141.407 107.897L206.453 227.804L217.069 231.152L219.72 218.945L154.378 98.5451ZM97.1904 98.5451L31.8481 218.945L34.4994 231.152L45.1116 227.804L110.063 107.897C105.148 105.731 100.729 102.481 97.1904 98.5451ZM125.784 113.801L97.9756 164.993C106.722 167.947 116.059 169.619 125.784 169.619C135.509 169.619 144.847 167.943 153.589 164.993L125.784 113.801Z" fill="white"/>
</svg>
