<svg width="251" height="250" viewBox="0 0 251 250" fill="none" xmlns="http://www.w3.org/2000/svg">
<path fill-rule="evenodd" clip-rule="evenodd" d="M78.8539 146.02L78.877 146L87.138 151.588C92.6068 155.288 95.8974 161.448 95.9316 168.051L96.0503 191H155.459V167.968C155.459 161.411 158.673 155.271 164.061 151.534L169.877 147.5L169.905 147.531C188.098 134.221 199.877 112.958 199.877 89C199.877 48.6832 166.522 16 125.377 16C84.2317 16 50.877 48.6832 50.877 89C50.877 112.071 61.7994 132.642 78.8539 146.02ZM125.792 234.948C109.656 234.948 96.5168 222.063 96.1332 206H155.451C155.069 222.053 141.936 234.948 125.792 234.948ZM77.2502 163.129C52.3718 147.409 35.877 119.859 35.877 88.5C35.877 39.6228 75.9475 0 125.377 0C174.806 0 214.877 39.6228 214.877 88.5C214.877 118.019 200.262 144.162 177.796 160.24L170.908 166.001C169.773 166.951 169.116 168.356 169.116 169.836V206.752C169.116 230.637 149.754 250 125.868 250C101.983 250 82.6205 230.637 82.6205 206.752V169.877C82.6205 168.373 81.9434 166.949 80.7768 165.999L77.2502 163.129ZM99.2716 90.4311L117.52 110.279L159.175 61.0726C162.974 58.3091 166.208 58.3091 168.876 61.0726C171.544 63.8362 171.544 67.7943 168.876 72.947C142.664 104.264 133.689 115.976 129.864 120.969C127.028 124.668 127.021 124.679 124.921 126.243C119.987 129.919 115.138 129.919 110.374 126.243C95.542 109.889 89.1891 103.978 89.1891 103.978C89.1891 103.978 83.9867 94.6164 89.1891 90.4311C92.6574 87.6409 96.0183 87.6409 99.2716 90.4311Z" fill="white"/>
</svg>
