<svg width="251" height="250" viewBox="0 0 251 250" fill="none" xmlns="http://www.w3.org/2000/svg">
<g clip-path="url(#clip0)">
<path fill-rule="evenodd" clip-rule="evenodd" d="M30.877 0C24.9435 0 19.1433 1.75947 14.2099 5.05591C9.27638 8.35235 5.43121 13.0377 3.16058 18.5195C0.889953 24.0013 0.295851 30.0333 1.45341 35.8527C2.61096 41.6721 5.46819 47.0176 9.66377 51.2132C13.8593 55.4088 19.2048 58.266 25.0243 59.4235C30.8437 60.5811 36.8757 59.987 42.3575 57.7164C47.3246 55.6589 51.6378 52.3088 54.8563 48.0276L87.296 62.4706L88.3494 60.1047C87.3887 63.7417 86.877 67.5611 86.877 71.5C86.877 74.9321 87.2655 78.2735 88.001 81.4826L53.5504 101.373C53.0815 100.831 52.5918 100.305 52.082 99.795C46.4575 94.1705 38.8312 91.0074 30.877 91C24.9435 91 19.1433 92.7595 14.2099 96.0559C9.27638 99.3523 5.43121 104.038 3.16058 109.519C0.889953 115.001 0.295851 121.033 1.45341 126.853C2.61096 132.672 5.46819 138.018 9.66377 142.213C13.8593 146.409 19.2048 149.266 25.0243 150.424C30.8437 151.581 36.8757 150.987 42.3575 148.716C47.8393 146.446 52.5246 142.601 55.8211 137.667C59.1175 132.734 60.877 126.933 60.877 121C60.875 118.913 60.6557 116.848 60.2317 114.836L93.8499 95.4262C97.1149 100.537 101.395 104.936 106.406 108.339L94.4778 160.007C94.2778 160.002 94.0775 160 93.877 160C87.9435 160 82.1433 161.759 77.2099 165.056C72.2764 168.352 68.4312 173.038 66.1606 178.519C63.89 184.001 63.2959 190.033 64.4534 195.853C65.611 201.672 68.4682 207.018 72.6638 211.213C76.8593 215.409 82.2048 218.266 88.0243 219.424C93.8437 220.581 99.8757 219.987 105.357 217.716C110.839 215.446 115.525 211.601 118.821 206.667C122.117 201.734 123.877 195.933 123.877 190C123.87 182.046 120.706 174.419 115.082 168.795C113.23 166.943 111.161 165.358 108.935 164.065L120.35 114.623C123.876 115.522 127.571 116 131.377 116C138.756 116 145.716 114.204 151.843 111.025L198.918 199.56C196.492 202.165 194.537 205.196 193.161 208.519C190.89 214.001 190.296 220.033 191.453 225.853C192.611 231.672 195.468 237.018 199.664 241.213C203.859 245.409 209.205 248.266 215.024 249.424C220.844 250.581 226.876 249.987 232.357 247.716C237.839 245.446 242.525 241.601 245.821 236.667C249.117 231.734 250.877 225.933 250.877 220C250.87 212.046 247.706 204.419 242.082 198.795C236.458 193.17 228.831 190.007 220.877 190C217.711 190 214.583 190.501 211.605 191.469L163.942 101.828C167.531 97.9758 170.445 93.486 172.495 88.5472L191.31 96.924C190.691 100.527 190.733 104.231 191.453 107.853C192.611 113.672 195.468 119.018 199.664 123.213C203.859 127.409 209.205 130.266 215.024 131.424C220.844 132.581 226.876 131.987 232.357 129.716C237.839 127.446 242.525 123.601 245.821 118.667C249.117 113.734 250.877 107.933 250.877 102C250.87 94.0458 247.706 86.4195 242.082 80.795C236.458 75.1705 228.831 72.0074 220.877 72C214.944 72 209.143 73.7595 204.21 77.0559C201.644 78.7706 199.372 80.8612 197.463 83.2441L175.828 73.6115C175.86 72.9118 175.877 72.2078 175.877 71.5C175.877 66.1216 174.923 60.966 173.174 56.1933L195.625 46.1975C196.782 48.0004 198.134 49.6833 199.664 51.2132C203.859 55.4088 209.205 58.266 215.024 59.4235C220.844 60.5811 226.876 59.987 232.357 57.7164C237.839 55.4458 242.525 51.6006 245.821 46.6671C249.117 41.7336 250.877 35.9334 250.877 30C250.87 22.0458 247.706 14.4195 242.082 8.79497C236.458 3.17048 228.831 0.00740272 220.877 0C214.944 0 209.143 1.75947 204.21 5.05591C199.276 8.35235 195.431 13.0377 193.161 18.5195C191.405 22.7571 190.652 27.3234 190.935 31.8662L165.655 43.1214C157.493 33.2731 145.168 27 131.377 27C115.147 27 100.947 35.6884 93.173 48.6677L60.5872 34.1596C60.7794 32.7868 60.877 31.3971 60.877 30C60.8695 22.0458 57.7065 14.4195 52.082 8.79497C46.4575 3.17048 38.8312 0.00740272 30.877 0ZM46.5589 33.2514C46.7805 32.1898 46.8955 31.1008 46.8975 30C46.8975 26.8314 45.9579 23.734 44.1975 21.0995C42.4372 18.4649 39.9351 16.4115 37.0077 15.199C34.0804 13.9864 30.8592 13.6692 27.7515 14.2873C24.6438 14.9055 21.7893 16.4313 19.5488 18.6718C17.3083 20.9123 15.7824 23.7669 15.1643 26.8745C14.5461 29.9822 14.8634 33.2034 16.0759 36.1308C17.2885 39.0581 19.3419 41.5602 21.9764 43.3205C24.611 45.0809 27.7084 46.0205 30.877 46.0205C35.1236 46.0131 39.1942 44.3229 42.197 41.32C42.7813 40.7357 43.3159 40.111 43.798 39.4525L46.5589 33.2514ZM93.877 206.021C90.7084 206.021 87.611 205.081 84.9764 203.321C82.3419 201.56 80.2885 199.058 79.0759 196.131C77.8634 193.203 77.5461 189.982 78.1643 186.875C78.7824 183.767 80.3083 180.912 82.5488 178.672C84.7893 176.431 87.6438 174.905 90.7515 174.287C93.8592 173.669 97.0804 173.986 100.008 175.199C102.935 176.412 105.437 178.465 107.198 181.099C108.958 183.734 109.897 186.831 109.897 190C109.89 194.247 108.2 198.317 105.197 201.32C102.194 204.323 98.1236 206.013 93.877 206.021ZM211.976 233.321C214.611 235.081 217.708 236.021 220.877 236.021C225.124 236.013 229.194 234.323 232.197 231.32C235.2 228.317 236.89 224.247 236.897 220C236.897 216.831 235.958 213.734 234.198 211.099C232.437 208.465 229.935 206.412 227.008 205.199C224.08 203.986 220.859 203.669 217.752 204.287C214.644 204.905 211.789 206.431 209.549 208.672C207.308 210.912 205.782 213.767 205.164 216.875C204.546 219.982 204.863 223.203 206.076 226.131C207.288 229.058 209.342 231.56 211.976 233.321ZM30.877 137.021C27.7084 137.021 24.611 136.081 21.9764 134.321C19.3419 132.56 17.2885 130.058 16.0759 127.131C14.8634 124.203 14.5461 120.982 15.1643 117.875C15.7824 114.767 17.3083 111.912 19.5488 109.672C21.7893 107.431 24.6438 105.905 27.7515 105.287C30.8592 104.669 34.0804 104.986 37.0077 106.199C39.9351 107.412 42.4372 109.465 44.1975 112.099C45.9579 114.734 46.8975 117.831 46.8975 121C46.8901 125.247 45.1998 129.317 42.197 132.32C39.1942 135.323 35.1236 137.013 30.877 137.021ZM211.976 115.321C214.611 117.081 217.708 118.021 220.877 118.021C225.124 118.013 229.194 116.323 232.197 113.32C235.2 110.317 236.89 106.247 236.897 102C236.897 98.8314 235.958 95.734 234.198 93.0995C232.437 90.4649 229.935 88.4115 227.008 87.199C224.08 85.9864 220.859 85.6692 217.752 86.2873C214.644 86.9055 211.789 88.4313 209.549 90.6718C207.308 92.9123 205.782 95.7669 205.164 98.8745C204.546 101.982 204.863 105.203 206.076 108.131C207.288 111.058 209.342 113.56 211.976 115.321ZM220.877 46.0205C217.708 46.0205 214.611 45.0809 211.976 43.3205C209.342 41.5602 207.288 39.0581 206.076 36.1308C204.863 33.2034 204.546 29.9822 205.164 26.8745C205.782 23.7669 207.308 20.9123 209.549 18.6718C211.789 16.4313 214.644 14.9055 217.752 14.2873C220.859 13.6692 224.08 13.9864 227.008 15.199C229.935 16.4115 232.437 18.4649 234.198 21.0995C235.958 23.734 236.897 26.8314 236.897 30C236.89 34.2466 235.2 38.3172 232.197 41.32C229.194 44.3229 225.124 46.0131 220.877 46.0205ZM163.78 71.5C163.78 89.3956 149.273 103.903 131.377 103.903C113.481 103.903 98.974 89.3956 98.974 71.5C98.974 53.6044 113.481 39.0971 131.377 39.0971C149.273 39.0971 163.78 53.6044 163.78 71.5Z" fill="white"/>
</g>
<defs>
<clipPath id="clip0">
<rect width="250" height="250" fill="white" transform="translate(0.876953)"/>
</clipPath>
</defs>
</svg>
