<svg width="251" height="250" viewBox="0 0 251 250" fill="none" xmlns="http://www.w3.org/2000/svg">
<path fill-rule="evenodd" clip-rule="evenodd" d="M96.877 16C92.4587 16 88.877 12.4183 88.877 8C88.877 3.58172 92.4587 0 96.877 0H212.877H213.877H222.877C226.191 0 228.877 2.68629 228.877 6V242C228.877 246.418 225.295 250 220.877 250C216.459 250 212.877 246.418 212.877 242V16H96.877ZM184.247 36H89.8671C88.8063 36 87.7889 36.4214 87.0387 37.1716L18.0485 106.162C17.2984 106.912 16.877 107.929 16.877 108.99V243C16.877 246.866 20.011 250 23.877 250H184.247C188.113 250 191.247 246.866 191.247 243V43C191.247 39.134 188.113 36 184.247 36ZM175.396 52.8491V233.145C175.396 233.698 174.948 234.145 174.396 234.145H33.7288C33.1765 234.145 32.7288 233.698 32.7288 233.145V131.111H103.988C108.406 131.111 111.988 127.529 111.988 123.111V51.8491H174.396C174.948 51.8491 175.396 52.2968 175.396 52.8491ZM32.7288 115.256V115.259H96.1363L96.1362 51.8491L32.7288 115.256Z" fill="white"/>
</svg>
