<svg width="251" height="250" viewBox="0 0 251 250" fill="none" xmlns="http://www.w3.org/2000/svg">
<path fill-rule="evenodd" clip-rule="evenodd" d="M6.87695 50C6.87695 41.7157 13.5927 35 21.877 35H210.877C219.161 35 225.877 41.7157 225.877 50V118.727C238.141 129.539 245.877 145.366 245.877 163C245.877 195.585 219.462 222 186.877 222C176.785 222 167.285 219.466 158.978 215H89.877H74.877H21.877C13.5927 215 6.87695 208.284 6.87695 200V50ZM210.877 85V109.086C203.545 105.817 195.423 104 186.877 104C176.336 104 166.441 106.764 157.877 111.607V85H210.877ZM89.877 129H138.653C132.768 137.332 128.987 147.257 128.086 158H89.877V129ZM89.877 173H128.721C130.447 183.11 134.745 192.342 140.918 200H89.877V173ZM74.877 158V129H21.877V158H74.877ZM21.877 173V195C21.877 197.761 24.1155 200 26.877 200H74.877V173H21.877ZM142.877 85V114H89.877V85H142.877ZM74.877 85V114H21.877V85H74.877ZM142.877 70H157.877H210.877V55C210.877 52.2386 208.638 50 205.877 50H26.877C24.1155 50 21.877 52.2386 21.877 55V70H74.877H89.877H142.877ZM186.877 207C211.177 207 230.877 187.301 230.877 163C230.877 138.699 211.177 119 186.877 119C162.576 119 142.877 138.699 142.877 163C142.877 187.301 162.576 207 186.877 207ZM213.105 154.271C215.816 151.139 215.475 146.403 212.344 143.691C209.212 140.98 204.476 141.321 201.765 144.452L182.156 167.1L173.126 156.67C170.415 153.539 165.679 153.198 162.547 155.909C159.416 158.62 159.075 163.357 161.786 166.489L176.186 183.121C177.739 184.915 179.957 185.793 182.157 185.706C184.356 185.792 186.574 184.914 188.126 183.121L213.105 154.271Z" fill="white"/>
</svg>
