<svg width="251" height="250" viewBox="0 0 251 250" fill="none" xmlns="http://www.w3.org/2000/svg">
<g clip-path="url(#clip0)">
<path fill-rule="evenodd" clip-rule="evenodd" d="M60.877 33C60.877 29.134 64.011 26 67.877 26H154.877C158.743 26 161.877 29.134 161.877 33V61.3653L247.286 108.998C249.503 110.234 250.877 112.573 250.877 115.111V216C250.877 219.866 247.743 223 243.877 223L161.877 223H75.877H60.877H7.87695C4.01096 223 0.876953 219.866 0.876953 216V115C0.876953 111.134 4.01096 108 7.87695 108H60.877V33ZM146.877 208H75.877V108V41H146.877V64.9188V77H97.877C94.011 77 90.877 80.134 90.877 84V85C90.877 88.866 94.011 92 97.877 92H146.877V117H97.877C94.011 117 90.877 120.134 90.877 124V125C90.877 128.866 94.011 132 97.877 132H146.877V157H97.877C94.011 157 90.877 160.134 90.877 164V165C90.877 168.866 94.011 172 97.877 172H146.877V208ZM60.877 123V208H45.877V177.909C45.877 174.043 42.7429 170.909 38.877 170.909H37.877C34.011 170.909 30.877 174.043 30.877 177.909V208H15.877V123H60.877ZM191.792 208H206.962C206.906 207.644 206.877 207.28 206.877 206.909V176.909H191.877V206.909C191.877 207.28 191.848 207.644 191.792 208ZM176.877 169.909V168.909C176.877 165.043 180.011 161.909 183.877 161.909H184.877H213.877H214.877C218.743 161.909 221.877 165.043 221.877 168.909V169.909V206.909C221.877 207.28 221.848 207.644 221.792 208H235.877V120.211L161.877 79V208H176.962C176.906 207.644 176.877 207.28 176.877 206.909V169.909Z" fill="white"/>
</g>
<defs>
<clipPath id="clip0">
<rect width="250" height="250" fill="white" transform="translate(0.876953)"/>
</clipPath>
</defs>
</svg>
