<svg width="251" height="250" viewBox="0 0 251 250" fill="none" xmlns="http://www.w3.org/2000/svg">
<g clip-path="url(#clip0)">
<path fill-rule="evenodd" clip-rule="evenodd" d="M168.247 0H73.8671C72.8063 0 71.7889 0.421427 71.0387 1.17157L2.04852 70.1618C1.29837 70.9119 0.876953 71.9293 0.876953 72.9902V207C0.876953 210.866 4.01096 214 7.87695 214H121.062L120.825 213.437C129.996 224.185 143.641 231 158.877 231C168.273 231 177.064 228.408 184.573 223.9L208.273 246.95C211.441 250.03 216.505 249.959 219.586 246.792C222.666 243.625 222.596 238.56 219.428 235.479L196.854 213.525C204.349 204.781 208.877 193.419 208.877 181C208.877 159.119 194.822 140.521 175.247 133.741V7C175.247 3.13401 172.113 0 168.247 0ZM159.396 131.003V16.8491C159.396 16.2968 158.948 15.8491 158.396 15.8491H95.9881V87.1111C95.9881 91.5294 92.4064 95.1111 87.9881 95.1111H16.7288V197.145C16.7288 197.698 17.1765 198.145 17.7288 198.145H111.894C109.942 192.798 108.877 187.023 108.877 181C108.877 153.386 131.263 131 158.877 131C159.05 131 159.223 131.001 159.396 131.003ZM16.7288 79.2565V79.2593H80.1363L80.1362 15.8491L16.7288 79.2565ZM193.877 181C193.877 200.33 178.207 216 158.877 216C139.547 216 123.877 200.33 123.877 181C123.877 161.67 139.547 146 158.877 146C178.207 146 193.877 161.67 193.877 181ZM121.026 115.409C123.737 112.278 123.396 107.541 120.265 104.83C117.133 102.119 112.397 102.459 109.685 105.591L90.0772 128.239L81.0472 117.809C78.3359 114.677 73.5994 114.337 70.4679 117.048C67.3364 119.759 66.9957 124.496 69.707 127.627L84.1072 144.259C85.6603 146.053 87.8779 146.931 90.0778 146.845C92.2772 146.931 94.4944 146.053 96.0472 144.259L121.026 115.409Z" fill="white"/>
</g>
<defs>
<clipPath id="clip0">
<rect width="250" height="250" fill="white" transform="translate(0.876953)"/>
</clipPath>
</defs>
</svg>
