<svg width="251" height="250" viewBox="0 0 251 250" fill="none" xmlns="http://www.w3.org/2000/svg">
<path fill-rule="evenodd" clip-rule="evenodd" d="M36.877 0C28.5927 0 21.877 6.71573 21.877 15V235C21.877 243.284 28.5927 250 36.8769 250H213.877C222.161 250 228.877 243.284 228.877 235V15C228.877 6.71573 222.161 0 213.877 0H36.877ZM42.877 16C40.1155 16 37.877 18.2386 37.877 21V229C37.877 231.761 40.1155 234 42.877 234H207.877C210.638 234 212.877 231.761 212.877 229V21C212.877 18.2386 210.638 16 207.877 16H42.877ZM53.877 87C53.877 92.5228 58.3541 97 63.877 97H186.877C192.4 97 196.877 92.5228 196.877 87V42C196.877 36.4772 192.4 32 186.877 32H63.877C58.3541 32 53.877 36.4771 53.877 42V87ZM69.877 79C69.877 80.1046 70.7724 81 71.877 81H178.877C179.982 81 180.877 80.1046 180.877 79V50C180.877 48.8954 179.982 48 178.877 48H71.877C70.7724 48 69.877 48.8954 69.877 50V79ZM177.877 207C177.877 211.418 181.459 215 185.877 215C190.295 215 193.877 211.418 193.877 207V123C193.877 118.582 190.295 115 185.877 115C181.459 115 177.877 118.582 177.877 123V207ZM80.377 160C92.8034 160 102.877 149.926 102.877 137.5C102.877 125.074 92.8034 115 80.377 115C67.9505 115 57.877 125.074 57.877 137.5C57.877 149.926 67.9505 160 80.377 160ZM80.377 147C85.6237 147 89.877 142.747 89.877 137.5C89.877 132.253 85.6237 128 80.377 128C75.1302 128 70.877 132.253 70.877 137.5C70.877 142.747 75.1302 147 80.377 147ZM102.877 192.5C102.877 204.926 92.8034 215 80.377 215C67.9505 215 57.877 204.926 57.877 192.5C57.877 180.074 67.9505 170 80.377 170C92.8034 170 102.877 180.074 102.877 192.5ZM89.877 192.5C89.877 197.747 85.6237 202 80.377 202C75.1302 202 70.877 197.747 70.877 192.5C70.877 187.253 75.1302 183 80.377 183C85.6237 183 89.877 187.253 89.877 192.5ZM140.377 160C152.803 160 162.877 149.926 162.877 137.5C162.877 125.074 152.803 115 140.377 115C127.951 115 117.877 125.074 117.877 137.5C117.877 149.926 127.951 160 140.377 160ZM140.377 147C145.624 147 149.877 142.747 149.877 137.5C149.877 132.253 145.624 128 140.377 128C135.13 128 130.877 132.253 130.877 137.5C130.877 142.747 135.13 147 140.377 147ZM162.877 192.5C162.877 204.926 152.803 215 140.377 215C127.951 215 117.877 204.926 117.877 192.5C117.877 180.074 127.951 170 140.377 170C152.803 170 162.877 180.074 162.877 192.5ZM149.877 192.5C149.877 197.747 145.624 202 140.377 202C135.13 202 130.877 197.747 130.877 192.5C130.877 187.253 135.13 183 140.377 183C145.624 183 149.877 187.253 149.877 192.5Z" fill="white"/>
</svg>
