<svg width="251" height="250" viewBox="0 0 251 250" fill="none" xmlns="http://www.w3.org/2000/svg">
<path fill-rule="evenodd" clip-rule="evenodd" d="M104.653 152.089C105.718 152.524 106.857 152.744 108.007 152.738V153C109.741 153.01 111.44 152.503 112.886 151.543C114.332 150.583 115.459 149.214 116.124 147.61C116.789 146.006 116.963 144.241 116.621 142.538C116.28 140.836 115.44 139.273 114.208 138.051C110.743 134.62 107.993 130.536 106.115 126.034C104.238 121.532 103.272 116.702 103.272 111.824C103.272 106.946 104.238 102.116 106.115 97.6145C107.993 93.1128 110.743 89.0283 114.208 85.5976L169.235 30.0846C176.185 23.1289 185.611 19.2212 195.439 19.2212C205.267 19.2212 214.693 23.1289 221.642 30.0846C228.592 37.0404 232.496 46.4743 232.496 56.3112C232.496 66.1481 228.592 75.5821 221.642 82.5378L189.412 114.796C187.981 116.469 187.233 118.62 187.318 120.82C187.403 123.021 188.315 125.108 189.87 126.665C191.426 128.222 193.511 129.134 195.709 129.219C197.907 129.304 200.057 128.555 201.728 127.123L233.958 94.8643C244.151 84.6626 249.877 70.8261 249.877 56.3986C249.877 41.9712 244.151 28.1347 233.958 17.933C223.765 7.73127 209.941 2 195.526 2C181.112 2 167.287 7.73127 157.094 17.933L101.805 73.2711C96.7555 78.321 92.7498 84.3174 90.0167 90.9175C87.2837 97.5176 85.877 104.592 85.877 111.737C85.877 118.881 87.2837 125.956 90.0167 132.556C92.7498 139.156 96.7555 145.152 101.805 150.202C102.621 151.013 103.589 151.654 104.653 152.089ZM26.0026 238.861C34.9298 244.825 45.4247 248.004 56.1591 247.998C63.3317 248.056 70.4438 246.682 77.0785 243.955C83.7133 241.228 89.7373 237.203 94.7975 232.118L150.008 176.884C160.17 166.693 165.877 152.886 165.877 138.491C165.877 124.096 160.17 110.289 150.008 100.098C148.339 98.6687 146.193 97.9217 143.998 98.0065C141.803 98.0913 139.72 99.0017 138.167 100.556C136.614 102.11 135.704 104.193 135.619 106.389C135.534 108.585 136.281 110.732 137.71 112.401C141.159 115.832 143.896 119.91 145.764 124.403C147.632 128.895 148.594 133.713 148.594 138.578C148.594 143.444 147.632 148.262 145.764 152.754C143.896 157.247 141.159 161.325 137.71 164.755L82.4995 219.989C75.5598 226.931 66.1477 230.832 56.3335 230.832C46.5194 230.832 37.1072 226.931 30.1676 219.989C23.2279 213.046 19.3293 203.63 19.3293 193.812C19.3293 183.994 23.2279 174.577 30.1676 167.635L62.3517 135.437C63.9825 133.794 64.8941 131.57 64.8859 129.255C64.8777 126.939 63.9505 124.722 62.3081 123.09C60.6657 121.459 58.4428 120.547 56.1283 120.555C53.8138 120.563 51.5973 121.491 49.9665 123.134L17.7823 155.332C10.1889 162.922 5.01698 172.596 2.92111 183.128C0.825234 193.66 1.89963 204.577 6.00833 214.498C10.117 224.42 17.0753 232.898 26.0026 238.861Z" fill="white"/>
</svg>
